# xmcd
#
# Track frame offsets:
#	150
#	21052
#	37508
#	55702
#	75311
#	94277
#	115834
#	132121
#	150612
#	167584
#	185912
#	198209
#
# Disc length: 2886 seconds
#
# Revision: 0
# Processed by: cddbd v1.5.1PL0 Copyright (c) Steve Scherf et al.
# Submitted via: dBpowerAMP V4.0
#
DISCID=870b440c
DTITLE=The Rocky Athas Group - Voodoo Moon
DYEAR=2005
DGENRE=Blues
TTITLE0=Road Fever
TTITLE1=Muddy Water Blues
TTITLE2=Last Of The Blues
TTITLE3=Tearin' Me Up
TTITLE4=Back On The Road
TTITLE5=Voodoo Moon
TTITLE6=Sleep
TTITLE7=Nobody
TTITLE8=I'm In Love Again
TTITLE9=Ain't No Doubt
TTITLE10=Preacher
TTITLE11=Stop, Drop and Roll
EXTD=Svein Gundersen
EXTT0=
EXTT1=
EXTT2=
EXTT3=
EXTT4=
EXTT5=
EXTT6=
EXTT7=
EXTT8=
EXTT9=
EXTT10=
EXTT11=
PLAYORDER=
